<svg xmlns="http://www.w3.org/2000/svg" xmlns:xlink="http://www.w3.org/1999/xlink" width="2048" zoomAndPan="magnify" viewBox="0 0 1536 1535.999932" height="2048" preserveAspectRatio="xMidYMid meet" version="1.0"><defs><g/><clipPath id="3f0c88d832"><path d="M 525 685 L 737 685 L 737 897 L 525 897 Z M 525 685 " clip-rule="nonzero"/></clipPath><clipPath id="39454d5241"><path d="M 525.316406 740.40625 L 580.058594 685.660156 L 736.347656 841.949219 L 681.601562 896.695312 Z M 525.316406 740.40625 " clip-rule="nonzero"/></clipPath><clipPath id="b73f56f76f"><path d="M 0.121094 0.441406 L 211.558594 0.441406 L 211.558594 211.878906 L 0.121094 211.878906 Z M 0.121094 0.441406 " clip-rule="nonzero"/></clipPath><clipPath id="572e009eb0"><path d="M 0.316406 55.40625 L 55.058594 0.660156 L 211.347656 156.949219 L 156.601562 211.695312 Z M 0.316406 55.40625 " clip-rule="nonzero"/></clipPath><clipPath id="bc1c015705"><rect x="0" width="212" y="0" height="212"/></clipPath><clipPath id="aa2f325f46"><rect x="0" width="518" y="0" height="518"/></clipPath><clipPath id="6421501c4b"><path d="M 319.273438 927.019531 L 548.527344 927.019531 L 548.527344 1004.4375 L 319.273438 1004.4375 Z M 319.273438 927.019531 " clip-rule="nonzero"/></clipPath><clipPath id="5da1df42d4"><path d="M 0.273438 0.0195312 L 229.527344 0.0195312 L 229.527344 77.4375 L 0.273438 77.4375 Z M 0.273438 0.0195312 " clip-rule="nonzero"/></clipPath><clipPath id="80b1b9d6b1"><rect x="0" width="230" y="0" height="78"/></clipPath><clipPath id="fab995ea47"><path d="M 736.34375 568.558594 L 818.882812 568.558594 L 818.882812 645.976562 L 736.34375 645.976562 Z M 736.34375 568.558594 " clip-rule="nonzero"/></clipPath><clipPath id="56228d411a"><path d="M 0.34375 0.558594 L 82.882812 0.558594 L 82.882812 77.976562 L 0.34375 77.976562 Z M 0.34375 0.558594 " clip-rule="nonzero"/></clipPath><clipPath id="8dbd48207d"><rect x="0" width="83" y="0" height="78"/></clipPath></defs><rect x="-153.6" width="1843.2" fill="#ffffff" y="-153.599993" height="1843.199919" fill-opacity="1"/><rect x="-153.6" width="1843.2" fill="#f5eee1" y="-153.599993" height="1843.199919" fill-opacity="1"/><g fill="#000000" fill-opacity="1"><g transform="translate(518.017189, 1028.624892)"><g><path d="M 83.046875 -509.9375 L 290.671875 -509.9375 C 344.578125 -509.9375 392.171875 -499.128906 433.453125 -477.515625 C 474.734375 -455.910156 506.785156 -425.800781 529.609375 -387.1875 C 552.429688 -348.582031 563.84375 -304.507812 563.84375 -254.96875 C 563.84375 -205.4375 552.429688 -161.363281 529.609375 -122.75 C 506.785156 -84.132812 474.734375 -54.019531 433.453125 -32.40625 C 392.171875 -10.800781 344.578125 0 290.671875 0 L 83.046875 0 Z M 287.75 -46.625 C 332.425781 -46.625 371.519531 -55.484375 405.03125 -73.203125 C 438.539062 -90.929688 464.523438 -115.457031 482.984375 -146.78125 C 501.441406 -178.113281 510.671875 -214.175781 510.671875 -254.96875 C 510.671875 -295.757812 501.441406 -331.816406 482.984375 -363.140625 C 464.523438 -394.472656 438.539062 -419 405.03125 -436.71875 C 371.519531 -454.445312 332.425781 -463.3125 287.75 -463.3125 L 136.953125 -463.3125 L 136.953125 -46.625 Z M 287.75 -46.625 "/></g></g></g><g clip-path="url(#3f0c88d832)"><g clip-path="url(#39454d5241)"><g transform="matrix(1, 0, 0, 1, 525, 685)"><g clip-path="url(#bc1c015705)"><g clip-path="url(#b73f56f76f)"><g clip-path="url(#572e009eb0)"><path fill="#f5eee1" d="M 0.316406 55.40625 L 55.058594 0.660156 L 211.382812 156.984375 L 156.636719 211.730469 Z M 0.316406 55.40625 " fill-opacity="1" fill-rule="nonzero"/></g></g></g></g></g></g><g transform="matrix(1, 0, 0, 1, 372, 532)"><g clip-path="url(#aa2f325f46)"><g fill="#000000" fill-opacity="1"><g transform="translate(336.534898, 430.23782)"><g><path d="M -223.125 -291.84375 L -198.484375 -316.484375 L 59 -59 L 34.359375 -34.359375 Z M -223.125 -291.84375 "/></g></g></g></g></g><g fill="#000000" fill-opacity="1"><g transform="translate(713.368509, 927.257828)"><g><path d="M 29.578125 -304.828125 L 93.671875 -304.828125 L 93.671875 0 L 29.578125 0 Z M 29.578125 -304.828125 "/></g></g></g><g fill="#000000" fill-opacity="1"><g transform="translate(416.308246, 949.740307)"><g><path d="M 29.578125 -304.828125 L 93.671875 -304.828125 L 93.671875 0 L 29.578125 0 Z M 29.578125 -304.828125 "/></g></g></g><g clip-path="url(#6421501c4b)"><g transform="matrix(1, 0, 0, 1, 319, 927)"><g clip-path="url(#80b1b9d6b1)"><g clip-path="url(#5da1df42d4)"><path fill="#f5eee1" d="M 0.273438 77.4375 L 0.273438 0.0195312 L 229.511719 0.0195312 L 229.511719 77.4375 Z M 0.273438 77.4375 " fill-opacity="1" fill-rule="nonzero"/></g></g></g></g><g clip-path="url(#fab995ea47)"><g transform="matrix(1, 0, 0, 1, 736, 568)"><g clip-path="url(#8dbd48207d)"><g clip-path="url(#56228d411a)"><path fill="#f5eee1" d="M 0.34375 77.976562 L 0.34375 0.558594 L 82.90625 0.558594 L 82.90625 77.976562 Z M 0.34375 77.976562 " fill-opacity="1" fill-rule="nonzero"/></g></g></g></g></svg>